<svg id="svg" version="1.1" xmlns="http://www.w3.org/2000/svg" xmlns:xlink="http://www.w3.org/1999/xlink" width="400" height="427.3809523809524" viewBox="0, 0, 400,427.3809523809524"><g id="svgg"><path id="path0" d="M0.000 213.600 L 0.000 427.200 200.000 427.200 L 400.000 427.200 400.000 213.600 L 400.000 0.000 200.000 0.000 L 0.000 0.000 0.000 213.600 M156.000 85.994 C 180.547 86.652,215.386 87.155,269.400 87.631 C 298.960 87.892,321.654 88.249,322.530 88.467 C 325.543 89.216,325.317 77.621,324.985 214.129 L 324.687 336.487 323.778 337.543 L 322.869 338.600 200.535 338.714 C 133.251 338.776,77.614 338.723,76.897 338.595 C 74.041 338.086,74.277 343.077,73.940 275.850 C 73.773 242.603,73.450 195.150,73.222 170.400 C 72.476 89.663,72.499 88.357,74.685 87.376 C 75.362 87.073,120.020 85.797,134.600 85.665 C 138.340 85.631,147.970 85.779,156.000 85.994 M267.600 158.804 C 182.343 159.704,127.057 160.082,114.933 159.847 L 101.265 159.582 100.190 160.507 L 99.115 161.432 98.575 211.016 C 98.118 252.980,97.940 282.437,97.990 307.731 L 98.000 312.862 99.169 314.031 L 100.338 315.200 199.547 315.200 L 298.755 315.200 299.878 314.235 L 301.000 313.269 301.128 266.735 C 301.327 193.951,300.934 160.992,299.851 159.773 C 298.674 158.447,299.372 158.468,267.600 158.804 " stroke="none" fill="#2164ac" fill-rule="evenodd"></path><path id="path1" d="M101.600 86.391 C 87.190 86.756,75.078 87.200,74.685 87.376 C 72.499 88.357,72.476 89.663,73.222 170.400 C 73.450 195.150,73.773 242.603,73.940 275.850 C 74.277 343.077,74.041 338.086,76.897 338.595 C 77.614 338.723,133.251 338.776,200.535 338.714 L 322.869 338.600 323.778 337.543 L 324.687 336.487 324.985 214.129 C 325.317 77.621,325.543 89.216,322.530 88.467 C 321.654 88.249,298.960 87.892,269.400 87.631 C 215.386 87.155,180.547 86.652,156.000 85.994 C 138.338 85.521,134.915 85.546,101.600 86.391 M299.851 159.773 C 300.934 160.992,301.327 193.951,301.128 266.735 L 301.000 313.269 299.878 314.235 L 298.755 315.200 199.547 315.200 L 100.338 315.200 99.169 314.031 L 98.000 312.862 97.990 307.731 C 97.940 282.437,98.118 252.980,98.575 211.016 L 99.115 161.432 100.190 160.507 L 101.265 159.582 114.933 159.847 C 127.057 160.082,182.343 159.704,267.600 158.804 C 299.372 158.468,298.674 158.447,299.851 159.773 " stroke="none" fill="#f8fafa" fill-rule="evenodd"></path></g></svg>